<svg width="59" height="36" viewBox="0 0 59 36" fill="none" xmlns="http://www.w3.org/2000/svg">
<path fill-rule="evenodd" clip-rule="evenodd" d="M47.1556 27.7C47.1925 27.3408 47.2078 26.9737 47.2 26.6C47.2 23.1 45 20 41.8 18.8C41.9 18.5001 41.9 18.1002 41.9 17.8002V17.8C41.9 12.8 37.9 8.8 32.9 8.8C31.4 8.8 30 9.2 28.7 9.9C27.4247 8.07817 25.6331 6.66201 23.5716 5.83067C25.2338 3.79427 27.7623 2.5 30.5496 2.5C33.8495 2.5 36.8495 4.40001 38.4495 7.3L39.1495 8.60001L40.3495 7.70001C41.4495 6.90001 42.8495 6.39999 44.2495 6.39999C47.8495 6.39999 50.7495 9.3 50.7495 12.9C50.7495 13.4 50.6495 14 50.5496 14.5L50.2495 15.8L51.5496 16.1C54.2496 16.7 56.1495 19.1 56.1495 21.8C56.1495 25.1 53.4495 27.7 50.2495 27.7H47.1556ZM46.548 30.1H50.3495C54.9495 30.1 58.6495 26.4 58.5496 21.6C58.5496 18.1 56.3495 15 53.1495 13.8C53.2495 13.5 53.2495 13.1 53.2495 12.8C53.2495 7.8 49.2495 3.8 44.2495 3.8C42.7495 3.8 41.3495 4.2 40.0496 4.89999C37.9496 1.89999 34.4495 0 30.6495 0C26.6296 0 23.1226 2.05149 21.0702 5.13848C20.4904 5.0472 19.8989 5 19.3 5C12.9 5 7.79999 10.2 7.79999 16.5C7.79999 17.1999 7.89998 17.7999 7.99997 18.3998L8 18.4C3.6 18.5 0 22.2 0 26.7C0 31.4 3.79999 35.1 8.39999 35.1H39C42.3946 35.1 45.2991 33.085 46.548 30.1ZM2.39999 26.8C2.39999 23.5 5.09999 20.9 8.29999 20.9V20.8H11.1L10.6 19.2C10.3 18.3 10.2 17.4 10.2 16.5C10.2 11.5 14.3 7.5 19.2 7.5C22.5 7.5 25.5 9.4 27.1 12.3L27.8 13.6L29 12.7C30.1 11.9 31.5 11.4 32.9 11.4C36.5 11.4 39.4 14.3 39.4 17.9C39.4 18.4 39.3 19 39.2 19.5L38.9 20.8L40.2 21.1C42.9 21.7 44.8 24.1 44.8 26.8C44.8 30.1 42.1 32.7 38.9 32.7H8.29999C4.99999 32.7 2.39999 30.1 2.39999 26.8Z" fill="#FFFFFF"/>
</svg>
